<svg xmlns="http://www.w3.org/2000/svg" viewBox="0 0 24 24" width="24" height="24">
  <!-- 1. Slanted Ring (Back part - subtle background depth) -->
  <path fill="currentColor" opacity="0.45" d="M3.5 16.5 C3.5 13.5 7.3 11.5 12 11.5 C16.7 11.5 20.5 13.5 20.5 16.5 C20.5 17.5 19.3 18.5 17.2 19.2 L18.8 20.6 C21.4 19.6 23 18.2 23 16.5 C23 12.5 18.1 9.5 12 9.5 C5.9 9.5 1 12.5 1 16.5 C1 18.2 2.6 19.6 5.2 20.6 L6.8 19.2 C4.7 18.5 3.5 17.5 3.5 16.5 Z" />
  
  <!-- 2. Majestic Flame (Ignis - full opacity in center) -->
  <path fill="currentColor" d="M12 1.5 C12 1.5 8 6 8 9.5 C8 11.7 9.8 13.5 12 13.5 C14.2 13.5 16 11.7 16 9.5 C16 6 12 1.5 12 1.5 Z M12 11.5 C10.9 11.5 10 10.6 10 9.5 C10 8.2 12 6.2 12 6.2 C12 6.2 14 8.2 14 9.5 C14 10.6 13.1 11.5 12 11.5 Z" />

  <!-- 3. Slanted Ring (Front part - bold foreground overlap) -->
  <path fill="currentColor" d="M12 21.5 C7.3 21.5 3.5 19.5 3.5 16.5 C3.5 16.2 3.6 15.9 3.8 15.6 L2.2 14.2 C1.4 14.9 1 15.7 1 16.5 C1 20.5 5.9 23.5 12 23.5 C18.1 23.5 23 20.5 23 16.5 C23 15.7 22.6 14.9 21.8 14.2 L20.2 15.6 C20.4 15.9 20.5 16.2 20.5 16.5 C20.5 19.5 16.7 21.5 12 21.5 Z" />
</svg>
